<?xml version="1.0" encoding="UTF-8"?><svg xmlns="http://www.w3.org/2000/svg" viewBox="0 0 678 800"><defs><style>.k,.l,.m{stroke-width:0px;}.k{fill:#2a82c9;}.l{fill:#f5a623;}.m{fill:#e8633c;}</style></defs><g><path d="M498.02,473.74c-18.37-18.44-38.58-27.18-60.63-26.24-22.06.95-43.3,11.67-63.72,32.18l-41.97,42.14-5.28,62.29c2.52-2.95,5.3-5.96,8.37-9.04l66.68-66.95c27.8-27.92,51.75-31.79,71.83-11.63,8.24,8.27,12.14,17.36,11.71,27.27-.43,9.91-5.11,19.35-14.03,28.3-10.64,10.69-21.37,16.28-32.18,16.8-10.81.52-20.25-3.28-28.32-11.37l-13.13-13.18-20.08,20.16,14.68,14.73c11.67,11.72,17.37,23.48,17.12,35.28-.26,11.81-5.79,23.13-16.61,33.99-10.64,10.69-22.02,16.5-34.11,17.45-12.1.95-23.56-4.01-34.37-14.86-1.05-1.06-2.03-2.11-2.97-3.18l-3.54,41.79c6.97,4.47,14.21,7.8,21.7,9.98,14.24,4.13,28.36,4.18,42.35.13,13.99-4.05,26.73-11.85,38.23-23.39,12.01-12.06,19.14-25.51,21.37-40.32,2.23-14.82-1.38-29.56-10.81-44.2l.77-.78c10.47,5.34,22.23,6.63,35.27,3.88,13.04-2.75,25.14-9.73,36.3-20.94,9.44-9.48,15.58-20.03,18.41-31.66,2.83-11.63,2.27-23.39-1.67-35.28-3.95-11.89-11.07-23.01-21.37-33.35Z"/><path d="M635.96,455.18l-90.37-90.73c-11.67,12.06-17.64,24.95-17.89,38.64-.26,13.7,4.93,25.89,15.57,36.58,7.55,7.58,16.31,13.87,26.26,18.87,9.95,5,20.68,7.75,32.18,8.27l1.29,1.29-21.11,27.4c-11.33-2.41-22.62-6.59-33.86-12.54-11.24-5.95-21.16-13.23-29.74-21.84-13.05-13.1-21.5-27.27-25.36-42.52-3.86-15.25-3.22-30.55,1.93-45.88,5.15-15.34,14.5-29.81,28.06-43.43,13.39-13.44,27.85-22.79,43.38-28.04,15.53-5.26,30.85-6.16,45.96-2.71,15.1,3.45,28.75,11.28,40.94,23.52,18.02,18.09,26.21,38.39,24.59,60.87-1.63,22.49-12.83,44.16-33.6,65.01-2.92,2.93-5.67,5.34-8.24,7.24ZM627.98,408.91c9.95-11.37,15.23-22.71,15.83-33.99.6-11.29-3.48-21.32-12.23-30.11-8.75-8.79-19.1-13.14-31.02-13.05-11.93.09-23.65,4.69-35.14,13.83l62.56,63.33Z"/><path d="M385.88,207.2c13.56-13.61,24.11-24.56,31.67-32.83l.77.78c-1.38,3.45-4.21,12.67-8.5,27.66l-3.35,11.12-20.08,71.86,3.6,3.62,71.57-20.16c13.56-3.62,26.52-7.5,38.87-11.63l.52.52c-8.24,7.58-19.14,18.18-32.7,31.79l-55.1,55.32,27.29,27.4,126.41-126.91-27.81-27.92-113.28,32.57-.52-.52,32.7-113.47-27.8-27.92-69.32,69.6-5.03,59.33,30.07-30.19Z"/></g><g><rect class="l" x="264.88" y=".2" width="38.37" height="799.59" transform="translate(35.1 -22.74) rotate(4.89)"/><rect class="k" x="149.49" y=".2" width="38.37" height="799.59" transform="translate(34.68 -12.91) rotate(4.89)"/><rect class="m" x="33.71" y=".2" width="38.37" height="799.59" transform="translate(34.26 -3.05) rotate(4.89)"/></g></svg>